<?xml version="1.0" encoding="UTF-8"?>
<svg version="1.1" xmlns="http://www.w3.org/2000/svg" width="1024" height="1024">
<path d="M0 0 C0.76630684 -0.00145344 1.53261368 -0.00290688 2.32214195 -0.00440437 C4.91088112 -0.00807743 7.49956189 -0.00457191 10.0883007 -0.0011425 C11.95458725 -0.0022938 13.82087358 -0.00388138 15.68715942 -0.00586975 C20.83196823 -0.01006179 25.97675859 -0.00797294 31.12156749 -0.00488353 C36.66350924 -0.00262918 42.20544773 -0.0061092 47.74738884 -0.00886345 C58.60996591 -0.01331958 69.47253608 -0.01234542 80.33511342 -0.00945081 C89.15892906 -0.0071964 97.98274276 -0.00688442 106.80655861 -0.00797462 C108.0603267 -0.00812786 109.31409478 -0.00828109 110.60585584 -0.00843897 C113.15248951 -0.00875868 115.69912318 -0.00908289 118.24575685 -0.00941156 C141.46575053 -0.0121844 164.68574016 -0.00930455 187.90573298 -0.00406896 C209.12006381 0.000678 230.33438863 0.00025124 251.54871941 -0.00452995 C275.3656888 -0.00987974 299.18265489 -0.0119923 322.99962509 -0.00891769 C325.53650657 -0.00859912 328.07338806 -0.00828475 330.61026955 -0.00797462 C331.85862171 -0.00782035 333.10697388 -0.00766607 334.3931549 -0.00750712 C343.21277305 -0.00664177 352.03238909 -0.00810522 360.85200691 -0.01045418 C371.59080138 -0.01325129 382.32958853 -0.01251575 393.06838216 -0.00717343 C398.55295266 -0.00453539 404.03751095 -0.0035331 409.52208138 -0.00682259 C414.5342014 -0.00978337 419.54629778 -0.00819641 424.55841564 -0.00284503 C426.38000039 -0.00171992 428.2015871 -0.00231408 430.02317061 -0.00472082 C432.48243588 -0.00772303 434.94161811 -0.0046822 437.40087891 0 C438.48339828 -0.00351175 438.48339828 -0.00351175 439.58778673 -0.00709444 C444.46044794 0.01169076 444.46044794 0.01169076 445.57459831 1.12584114 C445.12470568 7.31415134 443.59232052 12.76688516 441.60975456 18.62193489 C441.15204422 20.00571579 441.15204422 20.00571579 440.6850872 21.41745186 C440.0223585 23.41955347 439.35644586 25.42060337 438.68769646 27.42070198 C436.8727161 32.84982668 435.08089477 38.28657194 433.28944206 43.72349739 C432.91082024 44.87132698 432.53219841 46.01915657 432.1421032 47.20176888 C429.21936831 56.0916906 426.38087563 65.00605249 423.57850456 73.93443489 C423.37345613 74.58723616 423.16840771 75.24003742 422.95714569 75.91262054 C421.13424895 81.71731963 419.31457015 87.52301313 417.5065136 93.33235359 C416.38979522 96.9183672 415.26766477 100.50265111 414.14491081 104.08677864 C413.81225716 105.16265739 413.4796035 106.23853615 413.13686943 107.34701729 C412.82773109 108.33154381 412.51859276 109.31607033 412.20008659 110.33043098 C411.93301903 111.18857399 411.66595146 112.046717 411.39079094 112.93086433 C410.57459831 115.12584114 410.57459831 115.12584114 408.57459831 118.12584114 C406.55648124 118.50484866 406.55648124 118.50484866 404.01810837 118.510602 C402.57000945 118.52478681 402.57000945 118.52478681 401.09265602 118.53925818 C400.02457997 118.53441061 398.95650392 118.52956303 397.85606194 118.52456856 C396.16290798 118.5345388 396.16290798 118.5345388 394.4355489 118.54471046 C390.62747938 118.56346395 386.81972066 118.56072684 383.01161003 118.55821419 C380.29212454 118.56556038 377.57266316 118.57741701 374.85319328 118.58909798 C368.98514404 118.61193064 363.11715434 118.62377709 357.24906349 118.62822723 C348.76473628 118.63467721 340.28051692 118.65759416 331.79623307 118.68457053 C318.03210304 118.72788552 304.26797753 118.75782531 290.50379753 118.77940559 C277.130728 118.80040119 263.75769555 118.82766385 250.38465691 118.86338997 C249.14882891 118.86668821 249.14882891 118.86668821 247.88803469 118.87005308 C243.75497201 118.88112237 239.62190967 118.89231525 235.48884749 118.90356958 C201.18412905 118.99682137 166.87939496 119.06838837 132.57459831 119.12584114 C132.42304063 120.38335025 132.27148294 121.64085936 132.1153326 122.9364748 C131.69997094 126.38282646 131.04868282 129.67059289 130.17591667 133.03526497 C129.89570168 134.126119 129.61548668 135.21697304 129.32678032 136.34088326 C129.02570869 137.49323967 128.72463707 138.64559608 128.41444206 139.83287239 C127.95044754 141.6363942 127.95044754 141.6363942 127.47707939 143.47635078 C126.66012773 146.65052301 125.83934996 149.82366783 125.0160656 152.99620247 C123.85227715 157.48109387 122.69161947 161.96678085 121.53640556 166.45388985 C120.92231927 168.83868973 120.30477711 171.2226029 119.68346977 173.60553169 C119.40640694 174.68062492 119.1293441 175.75571815 118.84388542 176.86338997 C118.59819313 177.80966759 118.35250084 178.75594521 118.09936333 179.7308979 C117.46758033 182.20562722 117.46758033 182.20562722 117.57459831 185.12584114 C118.62135074 185.12399755 119.66810316 185.12215397 120.74657536 185.12025452 C146.20118468 185.07588086 171.655789 185.0430017 197.11042881 185.0222168 C209.42003249 185.01189855 221.72961063 184.99782772 234.03919792 184.97496223 C244.76660978 184.95504517 255.49400315 184.9421287 266.22143298 184.93766415 C271.90297185 184.93505392 277.58445783 184.92890731 283.26597977 184.91438103 C288.61172806 184.90082375 293.95740158 184.89661476 299.30316544 184.89962578 C301.26677672 184.89907479 303.23039046 184.89508634 305.19398689 184.88743019 C307.87231585 184.87749801 310.55036148 184.87986599 313.22869682 184.88533211 C314.00788607 184.87950642 314.78707531 184.87368074 315.58987635 184.86767852 C319.69347125 184.89035635 322.88265352 185.28774834 326.57459831 187.12584114 C325.27455994 195.22080056 323.32800203 202.99867226 321.07459831 210.87584114 C317.93917718 222.01516387 314.99346055 233.19179105 312.15272331 244.40980721 C309.09980937 256.45959687 306.02179503 268.49405001 302.57459831 280.43834114 C302.29608025 281.41585335 302.01756218 282.39336555 301.73060417 283.40049934 C301.47287224 284.27536995 301.2151403 285.15024055 300.94959831 286.05162239 C300.73045769 286.79839241 300.51131706 287.54516243 300.28553581 288.31456184 C299.57459831 290.12584114 299.57459831 290.12584114 297.57459831 292.12584114 C295.73357296 292.44313908 295.73357296 292.44313908 293.41909599 292.53647041 C292.52097411 292.57472215 291.62285223 292.61297388 290.69751453 292.65238476 C289.17982896 292.69809943 289.17982896 292.69809943 287.63148308 292.74473763 C286.53978845 292.78240714 285.44809381 292.82007666 284.32331753 292.85888767 C267.11674086 293.37460407 249.89509287 293.25221948 232.68286777 293.22723508 C227.56471249 293.22089732 222.44655634 293.22038963 217.32839775 293.21920967 C207.67837368 293.21612661 198.02836122 293.20795487 188.37834221 293.19786018 C177.37434584 293.18660398 166.37034886 293.18116486 155.36634815 293.17616475 C132.76909182 293.16576902 110.17184572 293.14822945 87.57459831 293.12584114 C85.24827161 302.16729221 82.92312847 311.20904671 80.59931594 320.25114429 C79.51910498 324.45417329 78.4385529 328.65711383 77.35708427 332.85981941 C70.40839126 359.86485318 63.58201417 386.89883245 56.84603882 413.95765495 C55.98300905 417.42202133 55.11760439 420.88578899 54.25184441 424.34947395 C53.10837439 428.94173698 51.99517743 433.54008715 50.90125847 438.14439583 C50.49922958 439.81355553 50.49922958 439.81355553 50.0890789 441.51643562 C49.58572319 443.60884146 49.09064867 445.70326357 48.60540581 447.79994392 C48.26978378 449.18498619 48.26978378 449.18498619 47.92738152 450.59800911 C47.73747139 451.40398537 47.54756126 452.20996162 47.35189629 453.0403614 C46.45671761 455.44211345 45.61198823 456.5792109 43.57459831 458.12584114 C40.64915398 458.54282367 37.94077925 458.75688835 35.00037956 458.84068489 C34.09209908 458.87484001 33.18381859 458.90899513 32.24801445 458.94418526 C18.50543659 459.36539563 4.74392691 458.99790459 -8.99888802 458.73094368 C-12.78094564 458.65898107 -16.56313772 458.59494244 -20.34532356 458.53013802 C-27.70549867 458.40290936 -35.06548363 458.26723784 -42.42540169 458.12584114 C-42.75540169 458.78584114 -43.08540169 459.44584114 -43.42540169 460.12584114 C-43.42540169 459.46584114 -43.42540169 458.80584114 -43.42540169 458.12584114 C-44.22083382 458.16137093 -45.01626595 458.19690071 -45.83580208 458.23350716 C-63.2216559 458.97319935 -80.52762306 459.20779003 -97.92540169 458.75084114 C-99.23047173 458.71871025 -99.23047173 458.71871025 -100.56190681 458.68593025 C-103.02706964 458.62311594 -105.491828 458.55226204 -107.95665169 458.47740364 C-108.69991203 458.45750877 -109.44317238 458.43761391 -110.20895576 458.41711617 C-115.30877083 458.242472 -115.30877083 458.242472 -116.42540169 457.12584114 C-116.02126568 447.37849445 -113.38222466 438.10118758 -111.01915169 428.68443489 C-110.56819671 426.86523125 -110.11797585 425.04584549 -109.66844368 423.22628975 C-108.72929055 419.42778651 -107.78681366 415.63013109 -106.84190559 411.8330555 C-104.82260789 403.70953053 -102.83986204 395.57709993 -100.8556385 387.44495201 C-99.76191272 382.9638637 -98.66578638 378.48336264 -97.56993294 374.00279427 C-97.12933987 372.20079246 -96.68874742 370.39879051 -96.24815559 368.59678841 C-95.3668658 364.99281339 -94.48498976 361.38898253 -93.60264778 357.78526497 C-88.24783004 335.91306209 -82.94342744 314.030296 -77.76536751 292.11548042 C-75.30486876 281.71650818 -72.75976679 271.34706955 -70.02739143 261.0154438 C-68.76717246 256.23334893 -68.17108249 252.07168025 -68.42540169 247.12584114 C-67.76540169 246.79584114 -67.10540169 246.46584114 -66.42540169 246.12584114 C-65.66915006 244.11513088 -65.66915006 244.11513088 -65.11265755 241.63780403 C-64.87578728 240.68333885 -64.63891701 239.72887367 -64.39486885 238.74548531 C-64.14584312 237.70697929 -63.8968174 236.66847328 -63.64024544 235.59849739 C-63.37909447 234.53924553 -63.1179435 233.47999367 -62.84887886 232.38864326 C-62.01246448 228.99039022 -61.18725284 225.58953874 -60.36290169 222.18834114 C-59.53298871 218.79123709 -58.70077879 215.39471458 -57.86621284 211.99875069 C-57.34663971 209.88165583 -56.8301554 207.76380018 -56.31698799 205.64514351 C-56.08326988 204.68752617 -55.84955177 203.72990883 -55.6087513 202.74327278 C-55.30136276 201.47538666 -55.30136276 201.47538666 -54.98776436 200.18188667 C-54.42540169 198.12584114 -54.42540169 198.12584114 -53.42540169 196.12584114 C-54.2578138 196.16137093 -55.09022591 196.19690071 -55.94786263 196.23350716 C-81.94449042 197.25771 -107.9431027 197.20789257 -133.95408821 196.98469734 C-137.81468569 196.95181971 -141.67517137 196.92815193 -145.53587532 196.91224861 C-150.16387886 196.89230027 -154.79129288 196.85222336 -159.41900635 196.79703712 C-161.15251831 196.77939234 -162.88611195 196.76840099 -164.61970901 196.76436806 C-167.01820455 196.75732023 -169.41516301 196.72555298 -171.81334114 196.68760872 C-172.86571276 196.69280195 -172.86571276 196.69280195 -173.93934441 196.69810009 C-178.68955765 196.58633928 -181.0591508 195.43926356 -184.42540169 192.12584114 C-185.92003059 190.21324348 -185.92003059 190.21324348 -187.15196419 188.21177864 C-187.85615486 187.08255989 -187.85615486 187.08255989 -188.57457161 185.93052864 C-189.06159554 185.12873177 -189.54861946 184.32693489 -190.05040169 183.50084114 C-190.56385139 182.67068489 -191.0773011 181.84052864 -191.60630989 180.98521614 C-192.67887836 179.24784878 -193.74726175 177.5078914 -194.81163216 175.76548958 C-196.40281225 173.16279077 -198.00797481 170.5692194 -199.61680794 167.97740364 C-200.6161542 166.36061671 -201.61487682 164.74344409 -202.61290169 163.12584114 C-203.08228157 162.36706673 -203.55166145 161.60829231 -204.03526497 160.82652473 C-204.68277718 159.76812386 -204.68277718 159.76812386 -205.34337044 158.68834114 C-205.72259651 158.0708802 -206.10182259 157.45341927 -206.49254036 156.81724739 C-208.6474142 152.91016392 -208.80985965 149.50866187 -208.42540169 145.12584114 C-206.55831664 142.76086675 -205.10478738 141.46553399 -202.42540169 140.12584114 C-200.30955938 140.03152833 -198.19065264 140.0039397 -196.07271004 140.00558662 C-195.41354926 140.0047322 -194.75438848 140.00387777 -194.07525313 140.00299746 C-191.85649284 140.00134439 -189.6378074 140.0068612 -187.41905403 140.01231575 C-185.83257232 140.01259769 -184.24609048 140.01243976 -182.65960884 140.01187325 C-178.34373786 140.01158552 -174.02789448 140.01747829 -169.71202993 140.0244472 C-165.20499975 140.03068482 -160.69796897 140.03128486 -156.19093513 140.03247261 C-147.6522059 140.03558472 -139.11348941 140.04379649 -130.5747658 140.0538221 C-120.85543813 140.06498697 -111.13610986 140.07049463 -101.41677737 140.07551754 C-81.41964502 140.0859792 -61.42252415 140.10357632 -41.42540169 140.12584114 C-41.22841682 139.12061409 -41.03143196 138.11538704 -40.82847786 137.07969856 C-40.56270053 135.7343842 -40.29682621 134.38908899 -40.03087044 133.04380989 C-39.9019239 132.38441414 -39.77297737 131.72501839 -39.64012337 131.04564095 C-38.60957998 125.84818726 -37.35616097 120.73065634 -35.97618294 115.61412239 C-35.28132241 112.89968145 -35.28132241 112.89968145 -35.42540169 109.12584114 C-34.76540169 109.12584114 -34.10540169 109.12584114 -33.42540169 109.12584114 C-33.30422981 108.34080208 -33.18305794 107.55576302 -33.05821419 106.74693489 C-32.15354086 101.07532901 -31.16747179 95.6009186 -29.42540169 90.12584114 C-30.13690376 90.28872753 -30.84840584 90.45161392 -31.58146858 90.61943626 C-34.4387547 91.12821885 -37.02882956 91.24178202 -39.92833138 91.22831917 C-41.02181892 91.22561516 -42.11530647 91.22291115 -43.24193001 91.2201252 C-44.43169441 91.21189232 -45.62145882 91.20365944 -46.84727669 91.19517708 C-48.10793953 91.19038841 -49.36860237 91.18559975 -50.66746712 91.18066597 C-54.11785061 91.16705271 -57.56815972 91.14660628 -61.01849556 91.12410069 C-63.17524452 91.11021715 -65.33199729 91.0975874 -67.48875618 91.08535194 C-74.240406 91.04677597 -80.99201181 91.00418568 -87.74359703 90.95557666 C-95.53144568 90.89951212 -103.31922078 90.85650376 -111.10720634 90.82489562 C-117.13289775 90.79967696 -123.15845282 90.76307607 -129.18402672 90.71780992 C-132.7807319 90.69103054 -136.37731415 90.66902151 -139.97410774 90.6587925 C-143.98414735 90.64699789 -147.99364535 90.6116099 -152.00352669 90.57408333 C-153.19329109 90.57394737 -154.3830555 90.57381142 -155.60887337 90.57367134 C-157.24910469 90.55269638 -157.24910469 90.55269638 -158.922472 90.53129768 C-160.34381447 90.52243601 -160.34381447 90.52243601 -161.79387093 90.51339531 C-164.95901539 90.0472541 -166.83779115 88.97983303 -169.42540169 87.12584114 C-171.20665169 84.72740364 -171.20665169 84.72740364 -172.92540169 81.75084114 C-173.61037334 80.58735792 -174.29667116 79.42465486 -174.98399544 78.26255989 C-175.55416389 77.28875374 -175.55416389 77.28875374 -176.13585091 76.29527473 C-178.13216126 72.93684728 -180.20659719 69.62790394 -182.27427864 66.313097 C-184.51148499 62.72317605 -186.72952275 59.12159593 -188.94688606 55.51939583 C-190.22698611 53.44705421 -191.51948551 51.38321782 -192.81602669 49.32115364 C-193.45024544 48.28732552 -194.08446419 47.25349739 -194.73790169 46.18834114 C-195.2702845 45.3336927 -195.80266731 44.47904427 -196.35118294 43.59849739 C-197.94275454 39.93498894 -197.86086688 36.69351585 -196.80040169 32.87584114 C-194.74884091 30.26476379 -192.60288895 29.98105697 -189.42540169 29.12584114 C-186.01654434 28.87974548 -186.01654434 28.87974548 -182.2120533 28.88533211 C-181.5086393 28.88362326 -180.80522529 28.88191441 -180.08049572 28.88015378 C-177.73588634 28.87687333 -175.3915665 28.88783848 -173.04698372 28.89879036 C-171.36139114 28.89935479 -169.67579806 28.8990373 -167.99020576 28.89790535 C-163.42248169 28.89733207 -158.85486289 28.90908247 -154.28716326 28.92305326 C-149.51056548 28.93556465 -144.73396523 28.93673145 -139.95735359 28.93910408 C-130.91583371 28.94531764 -121.87436226 28.96172681 -112.83286369 28.98180306 C-102.53788489 29.00416589 -92.24290377 29.01515646 -81.94790673 29.02519393 C-60.77371137 29.04609312 -39.59955958 29.08126672 -18.42540169 29.12584114 C-18.29262825 28.45213982 -18.15985481 27.77843849 -18.02305794 27.08432198 C-17.84645638 26.19366539 -17.66985481 25.3030088 -17.48790169 24.38536263 C-17.31387825 23.5054113 -17.13985481 22.62545998 -16.96055794 21.71884346 C-16.22854114 18.17198916 -15.35058498 14.69030446 -14.42540169 11.18834114 C-14.09540169 9.9211927 -13.76540169 8.65404427 -13.42540169 7.34849739 C-12.42540169 4.12584114 -12.42540169 4.12584114 -10.42540169 1.12584114 C-6.8815834 -0.05543162 -3.68668587 -0.0120379 0 0 Z " fill="#2369FE" transform="translate(404.42540168762207,282.87415885925293)"/>
<path d="M0 0 C0.54342041 0.48608231 1.08684082 0.97216461 1.64672852 1.47297668 C4.53646628 3.34810965 6.22572762 3.39434208 9.65234375 3.43237305 C10.80185013 3.45216217 11.95135651 3.47195129 13.13569641 3.49234009 C15.01758919 3.50193253 15.01758919 3.50193253 16.9375 3.51171875 C18.27131194 3.52870139 19.60510877 3.54690901 20.93888855 3.56625366 C24.54337314 3.61456711 28.14779071 3.64407863 31.75249863 3.66975784 C34.74904486 3.69341309 37.74542271 3.72799625 40.74185848 3.76267529 C70.82631076 4.10898617 100.91413914 4.1108121 131 4 C131.33 4.66 131.66 5.32 132 6 C115.23232193 6.07003679 98.4646912 6.12296195 81.69690228 6.15543652 C73.91157331 6.17091484 66.12633514 6.1920227 58.34106445 6.22631836 C51.55654793 6.25619129 44.77209716 6.27556798 37.9875167 6.28226548 C34.39408309 6.28618135 30.80083761 6.29540395 27.20746422 6.31719017 C23.19901508 6.34129651 19.19089439 6.34197136 15.18237305 6.34057617 C13.9869136 6.351362 12.79145416 6.36214783 11.55976868 6.3732605 C9.92544388 6.36707451 9.92544388 6.36707451 8.25810242 6.36076355 C7.30957744 6.36352893 6.36105246 6.36629431 5.38378429 6.36914349 C3 6 3 6 1.1713686 4.66495228 C0 3 0 3 0 0 Z " fill="#195AFE" transform="translate(220,472)"/>
<path d="M0 0 C3.54732238 0.0347771 7.09469686 0.06307368 10.64207006 0.09210706 C17.33523345 0.14784655 24.02833163 0.2092725 30.72142488 0.2728284 C38.35157755 0.34499898 45.98178186 0.41069797 53.61199677 0.47589886 C69.28545444 0.60997265 84.95882911 0.7520256 100.6321671 0.89946485 C100.6321671 1.22946485 100.6321671 1.55946485 100.6321671 1.89946485 C88.4495682 2.03252734 76.26694451 2.16303268 64.08428693 2.29061627 C58.42217381 2.34998613 52.76007121 2.41011046 47.09798741 2.47221875 C32.99873568 2.62642572 18.89945452 2.76433708 4.7997849 2.87444043 C2.68233821 2.89116842 0.56489625 2.90850566 -1.55254054 2.92644238 C-7.60491709 2.97751655 -13.65717798 3.01848566 -19.70972514 3.04251599 C-21.55710332 3.05125264 -23.40446884 3.06337956 -25.25180125 3.07904553 C-27.77378119 3.09964202 -30.29548747 3.1077384 -32.81753993 3.11235547 C-33.56027282 3.12108685 -34.3030057 3.12981824 -35.06824565 3.13881421 C-40.13930913 3.12798861 -40.13930913 3.12798861 -42.3678329 0.89946485 C-28.27219285 -0.50049152 -14.14498457 -0.14350163 0 0 Z " fill="#144EF8" transform="translate(561.3678328990936,283.10053515434265)"/>
<path d="M0 0 C1.41173492 -0.00197891 1.41173492 -0.00197891 2.85198975 -0.0039978 C5.91828707 -0.00591341 8.9844932 0.00042393 12.05078125 0.0078125 C13.09219269 0.00869873 14.13360413 0.00958496 15.20657349 0.01049805 C34.27187078 0.0295357 53.31186189 0.42392248 72.36328125 1.1328125 C69.80397663 3.69211712 68.14523349 3.36844884 64.6567688 3.38165283 C63.85979584 3.37446228 63.06282288 3.36727173 62.24169922 3.35986328 C61.4026001 3.36015533 60.56350098 3.36044739 59.69897461 3.36074829 C56.91770181 3.35935183 54.13669491 3.34377585 51.35546875 3.328125 C49.43018744 3.32439599 47.50490424 3.32154849 45.57962036 3.31954956 C40.50623355 3.31190426 35.43296081 3.2922481 30.35961914 3.2701416 C25.18507429 3.24970245 20.01051106 3.24055198 14.8359375 3.23046875 C4.67833523 3.20900304 -5.47918228 3.17485631 -15.63671875 3.1328125 C-15.63671875 2.4728125 -15.63671875 1.8128125 -15.63671875 1.1328125 C-10.38533076 0.05590634 -5.33319307 -0.01194044 0 0 Z " fill="#1B5AFB" transform="translate(413.63671875,282.8671875)"/>
<path d="M0 0 C1.30216209 -0.00197891 1.30216209 -0.00197891 2.63063049 -0.0039978 C5.50899681 -0.00593288 8.38726831 0.00047843 11.265625 0.0078125 C12.24784027 0.00869873 13.23005554 0.00958496 14.24203491 0.01049805 C37.33979275 0.03476898 60.42635415 0.54411203 83.515625 1.1328125 C83.515625 1.4628125 83.515625 1.7928125 83.515625 2.1328125 C52.18427585 3.28697996 20.86450717 3.2429716 -10.484375 3.1328125 C-10.814375 2.4728125 -11.144375 1.8128125 -11.484375 1.1328125 C-7.63634096 -0.14986551 -4.00959062 -0.00970422 0 0 Z " fill="#1856FA" transform="translate(674.484375,282.8671875)"/>
<path d="M0 0 C-0.33 0.66 -0.66 1.32 -1 2 C-30.35220086 2.12007635 -59.66200953 1.96097956 -89 1 C-89 0.67 -89 0.34 -89 0 C-59.28736396 -0.87694234 -29.70960812 -1.02865174 0 0 Z " fill="#1856F9" transform="translate(848,284)"/>
<path d="M0 0 C0.81226547 -0.00095673 1.62453094 -0.00191345 2.46141052 -0.00289917 C4.17699257 -0.00357923 5.8925772 -0.00173705 7.6081543 0.00244141 C10.23947905 0.00779903 12.87063364 0.00248701 15.50195312 -0.00390625 C17.16796913 -0.00324557 18.83398502 -0.00196463 20.5 0 C21.2895961 -0.00202423 22.0791922 -0.00404846 22.89271545 -0.00613403 C28.453664 0.01784763 28.453664 0.01784763 30.68359375 1.1328125 C32.72107005 1.36139364 34.76399678 1.54305528 36.80859375 1.6953125 C38.45214844 1.82099609 38.45214844 1.82099609 40.12890625 1.94921875 C41.39347656 2.04009766 41.39347656 2.04009766 42.68359375 2.1328125 C42.68359375 2.4628125 42.68359375 2.7928125 42.68359375 3.1328125 C24.86359375 3.1328125 7.04359375 3.1328125 -11.31640625 3.1328125 C-11.31640625 2.4728125 -11.31640625 1.8128125 -11.31640625 1.1328125 C-7.51886363 -0.13303504 -3.95583697 -0.01016736 0 0 Z " fill="#1C5AFE" transform="translate(685.31640625,467.8671875)"/>
<path d="M0 0 C1.18601807 -0.00676758 1.18601807 -0.00676758 2.39599609 -0.01367188 C8.0011141 0.0011141 8.0011141 0.0011141 9.125 1.125 C10.80683948 1.35787008 12.4962416 1.53764166 14.1875 1.6875 C15.10660156 1.77128906 16.02570312 1.85507812 16.97265625 1.94140625 C18.03806641 2.03228516 18.03806641 2.03228516 19.125 2.125 C19.125 2.455 19.125 2.785 19.125 3.125 C13.18018819 3.17434399 7.23549491 3.21069282 1.29052734 3.23486328 C-0.73293127 3.24493671 -2.75637528 3.25859595 -4.77978516 3.27587891 C-7.68395589 3.30006847 -10.58793461 3.31146949 -13.4921875 3.3203125 C-14.85475174 3.33579636 -14.85475174 3.33579636 -16.24484253 3.35159302 C-17.08556305 3.35174408 -17.92628357 3.35189514 -18.79248047 3.35205078 C-19.90500687 3.35871262 -19.90500687 3.35871262 -21.04000854 3.36550903 C-22.875 3.125 -22.875 3.125 -24.875 1.125 C-16.5765687 0.43958385 -8.32735035 0.02006993 0 0 Z " fill="#1A5AFB" transform="translate(543.875,282.875)"/>
<path d="M0 0 C4.62 0 9.24 0 14 0 C14 0.99 14 1.98 14 3 C-1.18 3 -16.36 3 -32 3 C-32 2.67 -32 2.34 -32 2 C-21.44 2 -10.88 2 0 2 C0 1.34 0 0.68 0 0 Z " fill="#1D5CFE" transform="translate(658,468)"/>
<path d="M0 0 C0.66 0 1.32 0 2 0 C1.51030705 6.61085476 -0.33442742 11.94977014 -3 18 C-3.66 18 -4.32 18 -5 18 C-1.92482916 5.33029613 -1.92482916 5.33029613 0 0 Z " fill="#1F5DFC" transform="translate(836,321)"/>
<path d="M0 0 C3.32859708 3.04875927 5.50435293 6.21910958 7.75 10.125 C8.67039063 11.70667969 8.67039063 11.70667969 9.609375 13.3203125 C11 16 11 16 11 18 C10.34 18 9.68 18 9 18 C7.35779345 15.59004706 5.84973401 13.19685209 4.375 10.6875 C3.95476562 9.99720703 3.53453125 9.30691406 3.1015625 8.59570312 C0 3.38447392 0 3.38447392 0 0 Z " fill="#1E5CFC" transform="translate(224,349)"/>
<path d="M0 0 C0.33 0 0.66 0 1 0 C0.44854729 5.23880078 -0.42922093 9.97350697 -2 15 C-2.66 15 -3.32 15 -4 15 C-3.43179252 9.54520815 -2.05362055 5.08940744 0 0 Z " fill="#1E5DFC" transform="translate(826,355)"/>
<path d="M0 0 C3.33557632 2.9905167 5.15083921 5.93184627 7 10 C6.01 10 5.02 10 4 10 C0 3.375 0 3.375 0 0 Z " fill="#205DFB" transform="translate(205,448)"/>
<path d="M0 0 C0.66 0.33 1.32 0.66 2 1 C1.67 3.64 1.34 6.28 1 9 C0.34 9 -0.32 9 -1 9 C-1.125 2.25 -1.125 2.25 0 0 Z " fill="#2A64F7" transform="translate(848,283)"/>
<path d="M0 0 C0.33 0 0.66 0 1 0 C0.67 2.97 0.34 5.94 0 9 C-0.99 9.33 -1.98 9.66 -3 10 C-2.01 6.7 -1.02 3.4 0 0 Z " fill="#1C58FC" transform="translate(818,379)"/>
<path d="M0 0 C0.33 0.66 0.66 1.32 1 2 C1.66 2 2.32 2 3 2 C3.66 3.98 4.32 5.96 5 8 C2 7 2 7 0.8125 5.125 C0 3 0 3 0 0 Z " fill="#1E5DFE" transform="translate(216,336)"/>
<path d="M0 0 C4 1 4 1 4 1 Z " fill="#3875F9" transform="translate(344,742)"/>
<path d="M0 0 C3 1 3 1 3 1 Z " fill="#3675FF" transform="translate(278,374)"/>
<path d="M0 0 C2 1 2 1 2 1 Z " fill="#3875F8" transform="translate(414,742)"/>
<path d="M0 0 C2 1 2 1 2 1 Z " fill="#3A75F9" transform="translate(408,742)"/>
<path d="M0 0 C2 1 2 1 2 1 Z " fill="#3A75F9" transform="translate(400,742)"/>
<path d="" fill="#4178F2" transform="translate(0,0)"/>
<path d="" fill="#3877FF" transform="translate(0,0)"/>
<path d="M0 0 C2 1 2 1 2 1 Z " fill="#3575FF" transform="translate(368,374)"/>
<path d="M0 0 C2 1 2 1 2 1 Z " fill="#3575FF" transform="translate(360,374)"/>
<path d="M0 0 C2 1 2 1 2 1 Z " fill="#3372FF" transform="translate(354,374)"/>
<path d="M0 0 C2 1 2 1 2 1 Z " fill="#3474FF" transform="translate(344,374)"/>
<path d="M0 0 C2 1 2 1 2 1 Z " fill="#3575FF" transform="translate(341,374)"/>
<path d="M0 0 C2 1 2 1 2 1 Z " fill="#3573FF" transform="translate(312,374)"/>
<path d="M0 0 C2 1 2 1 2 1 Z " fill="#3573FF" transform="translate(307,374)"/>
<path d="M0 0 C2 1 2 1 2 1 Z " fill="#3575FF" transform="translate(296,374)"/>
<path d="M0 0 C2 1 2 1 2 1 Z " fill="#3775FF" transform="translate(288,374)"/>
<path d="M0 0 C2 1 2 1 2 1 Z " fill="#3674FF" transform="translate(275,374)"/>
<path d="M0 0 C2 1 2 1 2 1 Z " fill="#3675FF" transform="translate(272,374)"/>
<path d="" fill="#575757" transform="translate(0,0)"/>
<path d="" fill="#616264" transform="translate(0,0)"/>
<path d="" fill="#3975F8" transform="translate(0,0)"/>
<path d="" fill="#3973F8" transform="translate(0,0)"/>
<path d="" fill="#3A75F8" transform="translate(0,0)"/>
<path d="" fill="#3A74F8" transform="translate(0,0)"/>
<path d="" fill="#3875F9" transform="translate(0,0)"/>
<path d="" fill="#3975F8" transform="translate(0,0)"/>
<path d="" fill="#3974F8" transform="translate(0,0)"/>
<path d="" fill="#3A74F9" transform="translate(0,0)"/>
<path d="" fill="#3974F8" transform="translate(0,0)"/>
<path d="" fill="#3A74FA" transform="translate(0,0)"/>
<path d="" fill="#3E75F3" transform="translate(0,0)"/>
<path d="" fill="#3F79F2" transform="translate(0,0)"/>
<path d="" fill="#3A74FD" transform="translate(0,0)"/>
<path d="" fill="#3D77FB" transform="translate(0,0)"/>
<path d="" fill="#3C75FD" transform="translate(0,0)"/>
<path d="" fill="#3776FE" transform="translate(0,0)"/>
<path d="" fill="#3B74FA" transform="translate(0,0)"/>
<path d="" fill="#3877FF" transform="translate(0,0)"/>
<path d="" fill="#3878FD" transform="translate(0,0)"/>
<path d="" fill="#3874FE" transform="translate(0,0)"/>
<path d="" fill="#3571FD" transform="translate(0,0)"/>
<path d="" fill="#3974FB" transform="translate(0,0)"/>
<path d="" fill="#3E7BF9" transform="translate(0,0)"/>
<path d="" fill="#3E7AF5" transform="translate(0,0)"/>
<path d="" fill="#3B73F6" transform="translate(0,0)"/>
<path d="" fill="#3E7AF8" transform="translate(0,0)"/>
<path d="" fill="#447AF0" transform="translate(0,0)"/>
<path d="" fill="#4679EC" transform="translate(0,0)"/>
<path d="" fill="#3777FF" transform="translate(0,0)"/>
<path d="" fill="#3D77FD" transform="translate(0,0)"/>
<path d="" fill="#3877FF" transform="translate(0,0)"/>
<path d="" fill="#4178F8" transform="translate(0,0)"/>
<path d="" fill="#3471FF" transform="translate(0,0)"/>
<path d="" fill="#3474FF" transform="translate(0,0)"/>
<path d="" fill="#3574FF" transform="translate(0,0)"/>
<path d="" fill="#3473FF" transform="translate(0,0)"/>
<path d="" fill="#3675FF" transform="translate(0,0)"/>
<path d="" fill="#3573FF" transform="translate(0,0)"/>
<path d="" fill="#3575FF" transform="translate(0,0)"/>
<path d="" fill="#3575FF" transform="translate(0,0)"/>
<path d="" fill="#3876FF" transform="translate(0,0)"/>
<path d="" fill="#3A77FF" transform="translate(0,0)"/>
<path d="" fill="#3D7AFE" transform="translate(0,0)"/>
<path d="" fill="#3B78F8" transform="translate(0,0)"/>
<path d="" fill="#3C79FB" transform="translate(0,0)"/>
<path d="" fill="#3F7BF8" transform="translate(0,0)"/>
<path d="" fill="#467AE8" transform="translate(0,0)"/>
<path d="" fill="#3F76F4" transform="translate(0,0)"/>
<path d="" fill="#585A5A" transform="translate(0,0)"/>
</svg>
